{"title":"This Week - S13E16 - 2015.01.22 - 468p x264","uid":11709725,"size":504214056,"categoryP":"video","categoryS":"tv_shows","magnet":"?xt=urn:btih:84a0f087350d477c7ed553ca5a23a1f36a7e497a&amp;dn=This+Week+-+S13E16+-+2015.01.22+-+468p+x264&amp;tr=udp%3A%2F%2Ftracker.openbittorrent.com%3A80&amp;tr=udp%3A%2F%2Fopen.demonii.com%3A1337&amp;tr=udp%3A%2F%2Ftracker.coppersurfer.tk%3A6969&amp;tr=udp%3A%2F%2Fexodus.desync.com%3A6969","seeders":0,"leechers":1,"uploader":"rugbybill","files":3,"time":1424278174,"description":"POLITICAL: This Week\nOn: BBC 1 HD \nDate: Thursday 22nd January 2015 \nTime: 23:35 to 00:20 \n\nAndrew Neil reviews the political week with Alan Johnson, Michael Portillo, \nCaroline Lucas and Miranda Green. Glamour model Laura Lacole tells why she \ndisagrees with the Sun's decision to drop its Page Three pictures. Isabel \nOakeshott rounds up the political week in a film. Brendan Cole from Strictly \nCome Dancing discusses criticism, and how people respond to it. Crack open the \nBlue Nun and prepare to watch public service broadcasting at its best.\n\nCredits\n\nPresenter\tAndrew Neil\nPanellist\tMichael Portillo\nPanellist\tAlan Johnson\nPanellist\tMiranda Green\nPanellist\tCaroline Lucas\nInterviewed Guest\tLaura Lacole\nInterviewed Guest\tBrendan Cole\nReporter\tIsabel Oakeshott\nDirector\tClaire Bellis\nEditor\tVicky Flind\nAssistant Editor\tRichard Garvin\nProduction Manager\tPaula Prynn\nProducer\tAndrew Bradley\nProducer\tJames Franklin\nProducer\tArryn Moy\nAssistant Producer\tEd Baranski\nProduction Company\tJuniper TV\nExecutive Producer\tRobbie Gibb\nExecutive Producer\tSamir Shah\n\n\n\nGeneral\nComplete name                            : 2015.01.22.This.Week.webrip.468p.x264.mp4\nFormat                                   : MPEG-4\nFormat profile                           : Base Media\nCodec ID                                 : isom\nFile size                                : 480 MiB\nDuration                                 : 44mn 40s\nOverall bit rate mode                    : Constant\nOverall bit rate                         : 1 503 Kbps\n\nVideo\nID                                       : 1\nFormat                                   : AVC\nFormat/Info                              : Advanced Video Codec\nFormat profile                           : &lt;a class=&quot;__cf_email__&quot; href=&quot;/cdn-cgi/l/email-protection&quot; data-cfemail=&quot;a4e9c5cdcae4e8978a95&quot;&gt;[email&amp;#160;protected]&lt;/a&gt;&lt;script cf-hash='f9e31' type=&quot;text/javascript&quot;&gt;\n/* &lt;![CDATA[ */!function(){try{var t=&quot;currentScript&quot;in document?document.currentScript:function(){for(var t=document.getElementsByTagName(&quot;script&quot;),e=t.length;e--;)if(t[e].getAttribute(&quot;cf-hash&quot;))return t[e]}();if(t&amp;&amp;t.previousSibling){var e,r,n,i,c=t.previousSibling,a=c.getAttribute(&quot;data-cfemail&quot;);if(a){for(e=&quot;&quot;,r=parseInt(a.substr(0,2),16),n=2;a.length-n;n+=2)i=parseInt(a.substr(n,2),16)^r,e+=String.fromCharCode(i);e=document.createTextNode(e),c.parentNode.replaceChild(e,c)}}}catch(u){}}();/* ]]&gt; */&lt;/script&gt;\nFormat settings, CABAC                   : Yes\nFormat settings, ReFrames                : 2 frames\nCodec ID                                 : avc1\nCodec ID/Info                            : Advanced Video Coding\nDuration                                 : 44mn 40s\nBit rate mode                            : Constant\nBit rate                                 : 1 404 Kbps\nWidth                                    : 832 pixels\nHeight                                   : 468 pixels\nDisplay aspect ratio                     : 16:9\nFrame rate mode                          : Constant\nFrame rate                               : 25.000 fps\nColor space                              : YUV\nChroma subsampling                       : 4:2:0\nBit depth                                : 8 bits\nScan type                                : Progressive\nBits/(Pixel*Frame)                       : 0.144\nStream size                              : 449 MiB (93%)\n\nAudio\nID                                       : 2\nFormat                                   : AAC\nFormat/Info                              : Advanced Audio Codec\nFormat profile                           : LC\nCodec ID                                 : 40\nDuration                                 : 44mn 40s\nBit rate mode                            : Constant\nBit rate                                 : 93.5 Kbps\nChannel(s)                               : 2 channels\nChannel positions                        : Front: L R\nSampling rate                            : 48.0 KHz\nCompression mode                         : Lossy\nStream size                              : 29.9 MiB (6%)","torrent":{"xt":"urn:btih:84a0f087350d477c7ed553ca5a23a1f36a7e497a","amp;dn":"This+Week+-+S13E16+-+2015.01.22+-+468p+x264","amp;tr":["udp%3A%2F%2Ftracker.openbittorrent.com%3A80","udp%3A%2F%2Fopen.demonii.com%3A1337","udp%3A%2F%2Ftracker.coppersurfer.tk%3A6969","udp%3A%2F%2Fexodus.desync.com%3A6969"],"infoHash":"84a0f087350d477c7ed553ca5a23a1f36a7e497a","infoHashBuffer":{"type":"Buffer","data":[132,160,240,135,53,13,71,124,126,213,83,202,90,35,161,243,106,126,73,122]},"announce":[],"urlList":[]}}